<svg width="179" height="58" viewBox="0 0 179 58" fill="none" xmlns="http://www.w3.org/2000/svg">
<g filter="url(#filter0_i_382_2)">
<path d="M30.4629 9.45993C32.0816 7.57142 34.4097 6.43702 36.8946 6.32602L166.106 0.553673C172.22 0.280556 176.817 6.05704 175.18 11.9535L167.831 38.4088C166.749 42.3042 163.202 45 159.159 45H19.568C11.8788 45 7.73062 35.9809 12.7347 30.1429L30.4629 9.45993Z" fill="#523E53"/>
</g>
<path d="M56.0377 16.16H70.6477V19.52H65.0077V38H61.5277V19.52H56.0377V16.16ZM70.2424 31.52C70.2424 30.24 70.5424 29.09 71.1424 28.07C71.7624 27.05 72.6024 26.24 73.6624 25.64C74.7424 25.04 75.9824 24.74 77.3824 24.74C78.8024 24.74 80.0324 25.04 81.0724 25.64C82.1324 26.24 82.9524 27.05 83.5324 28.07C84.1124 29.09 84.4024 30.24 84.4024 31.52C84.4024 32.8 84.1124 33.96 83.5324 35C82.9524 36.02 82.1324 36.83 81.0724 37.43C80.0124 38.03 78.7724 38.33 77.3524 38.33C75.9724 38.33 74.7424 38.06 73.6624 37.52C72.6024 36.96 71.7624 36.17 71.1424 35.15C70.5424 34.13 70.2424 32.92 70.2424 31.52ZM73.6324 31.55C73.6324 32.31 73.7924 33 74.1124 33.62C74.4324 34.22 74.8624 34.7 75.4024 35.06C75.9624 35.4 76.5924 35.57 77.2924 35.57C78.3924 35.57 79.2824 35.19 79.9624 34.43C80.6424 33.65 80.9824 32.69 80.9824 31.55C80.9824 30.41 80.6424 29.45 79.9624 28.67C79.2824 27.89 78.3924 27.5 77.2924 27.5C76.5924 27.5 75.9624 27.69 75.4024 28.07C74.8624 28.43 74.4324 28.92 74.1124 29.54C73.7924 30.14 73.6324 30.81 73.6324 31.55ZM93.123 38.33C91.923 38.33 90.853 38.05 89.913 37.49C88.973 36.93 88.233 36.14 87.693 35.12C87.153 34.08 86.883 32.86 86.883 31.46C86.883 30.04 87.173 28.83 87.753 27.83C88.333 26.83 89.123 26.07 90.123 25.55C91.123 25.01 92.263 24.74 93.543 24.74C94.463 24.74 95.333 24.92 96.153 25.28C96.993 25.62 97.653 26.09 98.133 26.69V14.6H101.463V38H98.103V36.29C97.483 36.89 96.753 37.38 95.913 37.76C95.093 38.14 94.163 38.33 93.123 38.33ZM94.203 35.48C95.183 35.48 96.003 35.24 96.663 34.76C97.343 34.28 97.823 33.61 98.103 32.75V30.05C97.863 29.27 97.383 28.63 96.663 28.13C95.963 27.63 95.143 27.38 94.203 27.38C93.483 27.38 92.823 27.56 92.223 27.92C91.643 28.26 91.173 28.73 90.813 29.33C90.453 29.93 90.273 30.62 90.273 31.4C90.273 32.16 90.453 32.85 90.813 33.47C91.173 34.09 91.643 34.58 92.223 34.94C92.823 35.3 93.483 35.48 94.203 35.48ZM111.437 38.33C110.237 38.33 109.157 38.08 108.197 37.58C107.237 37.08 106.467 36.34 105.887 35.36C105.327 34.38 105.047 33.15 105.047 31.67C105.047 30.23 105.337 29 105.917 27.98C106.517 26.94 107.297 26.14 108.257 25.58C109.237 25.02 110.297 24.74 111.437 24.74C112.617 24.74 113.567 24.97 114.287 25.43C115.027 25.87 115.617 26.4 116.057 27.02L116.297 25.31H119.387V38H116.027V36.14C115.807 36.4 115.487 36.7 115.067 37.04C114.647 37.38 114.127 37.68 113.507 37.94C112.907 38.2 112.217 38.33 111.437 38.33ZM112.367 35.57C113.267 35.57 114.037 35.33 114.677 34.85C115.317 34.37 115.767 33.71 116.027 32.87V30.11C115.787 29.33 115.327 28.7 114.647 28.22C113.967 27.74 113.167 27.5 112.247 27.5C111.547 27.5 110.907 27.67 110.327 28.01C109.767 28.33 109.307 28.8 108.947 29.42C108.607 30.02 108.437 30.71 108.437 31.49C108.437 32.25 108.617 32.94 108.977 33.56C109.337 34.18 109.807 34.67 110.387 35.03C110.987 35.39 111.647 35.57 112.367 35.57ZM127.837 38.27C126.877 38.27 125.957 38.1 125.077 37.76C124.217 37.42 123.487 36.92 122.887 36.26L124.327 34.37C124.887 34.91 125.437 35.31 125.977 35.57C126.537 35.81 127.067 35.93 127.567 35.93C128.127 35.93 128.607 35.83 129.007 35.63C129.427 35.41 129.637 35.05 129.637 34.55C129.637 34.15 129.497 33.84 129.217 33.62C128.937 33.38 128.577 33.19 128.137 33.05C127.697 32.89 127.237 32.74 126.757 32.6C125.657 32.26 124.837 31.76 124.297 31.1C123.757 30.44 123.487 29.68 123.487 28.82C123.487 28.16 123.657 27.53 123.997 26.93C124.337 26.31 124.847 25.8 125.527 25.4C126.227 25 127.117 24.8 128.197 24.8C129.137 24.8 129.967 24.91 130.687 25.13C131.407 25.35 132.077 25.7 132.697 26.18L131.407 28.19C131.047 27.85 130.617 27.59 130.117 27.41C129.637 27.21 129.197 27.1 128.797 27.08C128.257 27.06 127.807 27.17 127.447 27.41C127.087 27.65 126.907 27.97 126.907 28.37C126.887 28.77 127.017 29.09 127.297 29.33C127.597 29.57 127.977 29.76 128.437 29.9C128.897 30.04 129.357 30.19 129.817 30.35C130.737 30.65 131.497 31.08 132.097 31.64C132.697 32.18 132.997 32.94 132.997 33.92C132.997 34.7 132.807 35.42 132.427 36.08C132.047 36.74 131.477 37.27 130.717 37.67C129.957 38.07 128.997 38.27 127.837 38.27Z" fill="#C19D72"/>
<defs>
<filter id="filter0_i_382_2" x="10.5505" y="0.544373" width="164.963" height="48.4556" filterUnits="userSpaceOnUse" color-interpolation-filters="sRGB">
<feFlood flood-opacity="0" result="BackgroundImageFix"/>
<feBlend mode="normal" in="SourceGraphic" in2="BackgroundImageFix" result="shape"/>
<feColorMatrix in="SourceAlpha" type="matrix" values="0 0 0 0 0 0 0 0 0 0 0 0 0 0 0 0 0 0 127 0" result="hardAlpha"/>
<feOffset dy="4"/>
<feGaussianBlur stdDeviation="2"/>
<feComposite in2="hardAlpha" operator="arithmetic" k2="-1" k3="1"/>
<feColorMatrix type="matrix" values="0 0 0 0 0 0 0 0 0 0 0 0 0 0 0 0 0 0 0.25 0"/>
<feBlend mode="normal" in2="shape" result="effect1_innerShadow_382_2"/>
</filter>
</defs>
</svg>
